# xmcd
#
# Track frame offsets:
#	150
#	12001
#	19992
#	32105
#	43413
#	50851
#	61598
#	72914
#	84585
#	96043
#	106221
#	113873
#	124082
#	130011
#	137577
#	150012
#	158737
#	166336
#
# Disc length: 2326 seconds
#
# Revision: 1
# Processed by: cddbd v1.5.1PL0 Copyright (c) Steve Scherf et al.
# Submitted via: EasyCDDAExtractor 7.0.5.1
#
DISCID=e2091412
DTITLE=Jim Reeves - Golden songs [CD2]
DYEAR=1900
DGENRE=Country
TTITLE0=Your Old Love Letters
TTITLE1=Till The End Of The World
TTITLE2=Four Walls
TTITLE3=Just Call Me Lonesome
TTITLE4=Blue Boy
TTITLE5=I Missed Me
TTITLE6=I Love You More
TTITLE7=Am I Losing You?
TTITLE8=If Heartaches Are The Fashion
TTITLE9=He'll Have To Go
TTITLE10=I Know One
TTITLE11=Anna Marie
TTITLE12=Have I Told You Lately That I Love You?
TTITLE13=The Oklahoma Hills
TTITLE14=When God Dips His Love In My Heart
TTITLE15=Yonder Comes A Sucker
TTITLE16=Bimbo
TTITLE17=Waiting For A Train
EXTD=
EXTT0=
EXTT1=
EXTT2=
EXTT3=
EXTT4=
EXTT5=
EXTT6=
EXTT7=
EXTT8=
EXTT9=
EXTT10=
EXTT11=
EXTT12=
EXTT13=
EXTT14=
EXTT15=
EXTT16=
EXTT17=
PLAYORDER=
